<svg id="Layer_1" data-name="Layer 1" xmlns="http://www.w3.org/2000/svg" viewBox="0 0 274.53 90.59"><defs><style>.cls-1{fill:#eb2027;}</style></defs><title>boundless-logo</title><path class="cls-1" d="M6.43,70c-.91-2.68-.12-3.67,2.27-3.67,19.94,0,39.88,0,59.82.11.85,0,1.7,1.22,2.54,1.88-.72.67-1.45,1.91-2.18,1.92-20.55.08-41.1,0-61.65,0A3.47,3.47,0,0,1,6.43,70Z"/><path class="cls-1" d="M270.67,66.38c.81,2.65.47,3.92-1.95,3.91-20.08,0-40.16,0-60.24-.07-.81,0-1.61-1.14-2.42-1.75.71-.7,1.41-2,2.12-2C229,66.36,249.75,66.38,270.67,66.38Z"/><path d="M20,14.82a16.16,16.16,0,0,1,3.85.43,7.87,7.87,0,0,1,3,1.44,6.59,6.59,0,0,1,2,2.69,10.64,10.64,0,0,1,.71,4.12,8.68,8.68,0,0,1-1.28,4.78A6.36,6.36,0,0,1,24.47,31v.1A6.64,6.64,0,0,1,29,33.54a8.56,8.56,0,0,1,1.65,5.52,14.24,14.24,0,0,1-.52,3.84,8,8,0,0,1-1.77,3.19,8.85,8.85,0,0,1-3.26,2.18,13.1,13.1,0,0,1-5,.82H8.62V14.82ZM17.35,28.88a6.63,6.63,0,0,0,4.13-1,4.21,4.21,0,0,0,1.29-3.48,4.34,4.34,0,0,0-1.18-3.46,5.65,5.65,0,0,0-3.72-1H15.41v9ZM18.06,44a6.61,6.61,0,0,0,4-1.1c1-.74,1.51-2.1,1.51-4.08a6.77,6.77,0,0,0-.4-2.48A4.17,4.17,0,0,0,22,34.76a3.84,3.84,0,0,0-1.63-.84,8.34,8.34,0,0,0-2.07-.24H15.41V44Z"/><path d="M39.22,24.78a15.94,15.94,0,0,1,1.55-5.64,8.86,8.86,0,0,1,3.47-3.68,12.07,12.07,0,0,1,6.09-1.32,12.07,12.07,0,0,1,6.09,1.32,8.78,8.78,0,0,1,3.46,3.68,15.73,15.73,0,0,1,1.56,5.64A66.08,66.08,0,0,1,61.8,32a65.86,65.86,0,0,1-.36,7.2,15.79,15.79,0,0,1-1.56,5.62,8.3,8.3,0,0,1-3.46,3.6,12.67,12.67,0,0,1-6.09,1.25,12.67,12.67,0,0,1-6.09-1.25,8.38,8.38,0,0,1-3.47-3.6,16,16,0,0,1-1.55-5.62,65.86,65.86,0,0,1-.36-7.2A66.08,66.08,0,0,1,39.22,24.78Zm6.6,13a16.61,16.61,0,0,0,.66,3.94A4.43,4.43,0,0,0,47.9,44a4.62,4.62,0,0,0,4.86,0,4.42,4.42,0,0,0,1.41-2.21,16.61,16.61,0,0,0,.66-3.94Q55,35.42,55,32t-.17-5.85a16.89,16.89,0,0,0-.66-3.94,4.4,4.4,0,0,0-1.41-2.23,4.57,4.57,0,0,0-4.86,0,4.4,4.4,0,0,0-1.42,2.23,16.89,16.89,0,0,0-.66,3.94q-.16,2.4-.16,5.85T45.82,37.83Z"/><path d="M76.89,38.72a15.85,15.85,0,0,0,.17,2.38A5.42,5.42,0,0,0,77.67,43a3.35,3.35,0,0,0,1.23,1.25,4.54,4.54,0,0,0,3.94,0A3.43,3.43,0,0,0,84,43a5.42,5.42,0,0,0,.61-1.87,14.63,14.63,0,0,0,.17-2.38V14.82h6.79v23.9a14,14,0,0,1-.89,5.4,8.6,8.6,0,0,1-2.41,3.38,7.87,7.87,0,0,1-3.44,1.68,18.25,18.25,0,0,1-4,.44,20.2,20.2,0,0,1-4-.39,8,8,0,0,1-3.45-1.56A7.84,7.84,0,0,1,71,44.34a14.82,14.82,0,0,1-.9-5.62V14.82h6.79Z"/><path d="M116.67,38.29h.09V14.82H123V49.09h-7.74l-8.3-24h-.1v24h-6.22V14.82h7.83Z"/><path d="M143.89,14.82A12,12,0,0,1,149.6,16,8.41,8.41,0,0,1,153,19.35a15.14,15.14,0,0,1,1.62,5.26,49.23,49.23,0,0,1,.43,6.86,48.47,48.47,0,0,1-.55,7.85,15.19,15.19,0,0,1-1.86,5.5A8.18,8.18,0,0,1,149.08,48a13,13,0,0,1-5.61,1.06H132.76V14.82ZM142.57,44a5.81,5.81,0,0,0,2.88-.62,4.29,4.29,0,0,0,1.72-2.07,12,12,0,0,0,.85-3.79q.21-2.35.21-5.86c0-1.95-.06-3.66-.19-5.13a12.75,12.75,0,0,0-.77-3.67,4.56,4.56,0,0,0-1.75-2.21,5.61,5.61,0,0,0-3.09-.75h-2.88V44Z"/><path d="M164.23,14.82H171v28.6h12v5.67H164.23Z"/><path d="M209.62,20.48h-12v8.06h11.32v5.67H197.59v9.21h12.5v5.67h-19.3V14.82h18.83Z"/><path d="M223.68,39.39a11.38,11.38,0,0,0,.19,2.19,3.86,3.86,0,0,0,.7,1.65,3.52,3.52,0,0,0,1.4,1.06,5.55,5.55,0,0,0,2.19.38,4.3,4.3,0,0,0,2.81-1,3.91,3.91,0,0,0,1.25-3.19,5.66,5.66,0,0,0-.31-2,3.94,3.94,0,0,0-1-1.52A7.47,7.47,0,0,0,229,35.72a27.29,27.29,0,0,0-2.85-1.13,23.89,23.89,0,0,1-3.92-1.68,10.77,10.77,0,0,1-2.76-2.13,7.57,7.57,0,0,1-1.62-2.84,12,12,0,0,1-.52-3.72c0-3.39.92-5.92,2.78-7.58a11.05,11.05,0,0,1,7.64-2.5,16.17,16.17,0,0,1,4.18.51,8.66,8.66,0,0,1,3.3,1.63,7.58,7.58,0,0,1,2.17,2.88,10.29,10.29,0,0,1,.78,4.2v1H231.7a7,7,0,0,0-.85-3.77A3.11,3.11,0,0,0,228,19.23a4.56,4.56,0,0,0-1.89.34,3.15,3.15,0,0,0-1.2.89,3,3,0,0,0-.61,1.27,6.08,6.08,0,0,0-.17,1.49,5,5,0,0,0,.66,2.66,5.92,5.92,0,0,0,2.83,2l5.24,2.31A15.44,15.44,0,0,1,236,32a8.63,8.63,0,0,1,2,2,6.72,6.72,0,0,1,1,2.38,13.37,13.37,0,0,1,.29,2.88c0,3.61-1,6.25-3.09,7.89s-4.94,2.48-8.61,2.48q-5.76,0-8.24-2.55c-1.65-1.69-2.48-4.13-2.48-7.29v-1.4h6.8Z"/><path d="M252.89,39.39a12.28,12.28,0,0,0,.18,2.19,4,4,0,0,0,.71,1.65,3.56,3.56,0,0,0,1.39,1.06,5.64,5.64,0,0,0,2.2.38,4.3,4.3,0,0,0,2.81-1,3.91,3.91,0,0,0,1.25-3.19,5.9,5.9,0,0,0-.31-2,4,4,0,0,0-1-1.52,7.4,7.4,0,0,0-1.86-1.22,27.29,27.29,0,0,0-2.85-1.13,23.89,23.89,0,0,1-3.92-1.68,10.77,10.77,0,0,1-2.76-2.13,7.73,7.73,0,0,1-1.63-2.84,12.29,12.29,0,0,1-.52-3.72q0-5.09,2.79-7.58a11,11,0,0,1,7.64-2.5,16.23,16.23,0,0,1,4.18.51,8.66,8.66,0,0,1,3.3,1.63,7.58,7.58,0,0,1,2.17,2.88,10.29,10.29,0,0,1,.78,4.2v1h-6.51a7,7,0,0,0-.85-3.77,3.11,3.11,0,0,0-2.83-1.32,4.53,4.53,0,0,0-1.89.34,3.15,3.15,0,0,0-1.2.89,3,3,0,0,0-.62,1.27,6.61,6.61,0,0,0-.16,1.49,5,5,0,0,0,.66,2.66,5.92,5.92,0,0,0,2.83,2l5.24,2.31a15.44,15.44,0,0,1,3.16,1.8,8.83,8.83,0,0,1,2,2,6.9,6.9,0,0,1,1,2.38,13.4,13.4,0,0,1,.28,2.88c0,3.61-1,6.25-3.09,7.89s-4.93,2.48-8.61,2.48q-5.76,0-8.23-2.55c-1.65-1.69-2.48-4.13-2.48-7.29v-1.4h6.8Z"/><path d="M95.17,63.49a6.39,6.39,0,0,0-.53-1.37A3.9,3.9,0,0,0,93.78,61a4.09,4.09,0,0,0-1.24-.71,5.09,5.09,0,0,0-1.64-.25,4.91,4.91,0,0,0-2.37.55,4.7,4.7,0,0,0-1.62,1.48,6.87,6.87,0,0,0-.92,2.1A9.75,9.75,0,0,0,86,69a6.87,6.87,0,0,0,.92,2.1,4.7,4.7,0,0,0,1.62,1.48,4.91,4.91,0,0,0,2.37.55,4.27,4.27,0,0,0,1.77-.35,3.94,3.94,0,0,0,1.32-1,4.5,4.5,0,0,0,.87-1.43,7,7,0,0,0,.4-1.75h2.93a8,8,0,0,1-.66,2.81A6.67,6.67,0,0,1,96,73.65a6.55,6.55,0,0,1-2.26,1.43,7.69,7.69,0,0,1-2.85.51,8.15,8.15,0,0,1-3.45-.71A7.74,7.74,0,0,1,84.87,73a8.83,8.83,0,0,1-1.62-2.86,11,11,0,0,1,0-6.94,8.78,8.78,0,0,1,1.62-2.85,7.8,7.8,0,0,1,2.58-1.95,8,8,0,0,1,3.45-.72,9.2,9.2,0,0,1,2.71.4,7,7,0,0,1,2.24,1.15A6,6,0,0,1,97.42,61a6.44,6.44,0,0,1,.75,2.47Z"/><path d="M106,63.18h2.23l4.62,12h-2.25L109.47,72h-4.79l-1.13,3.18h-2.16Zm-.74,7.23h3.66l-1.79-5.16h-.06Z"/><path d="M115.67,63.18h5.72a4.45,4.45,0,0,1,3,.86,3,3,0,0,1,1,2.38,3.41,3.41,0,0,1-.25,1.42,3.18,3.18,0,0,1-.59.91,2.35,2.35,0,0,1-.66.5,4.69,4.69,0,0,1-.48.2v0a2.08,2.08,0,0,1,.58.17,1.75,1.75,0,0,1,.58.43,2.41,2.41,0,0,1,.44.76,3.37,3.37,0,0,1,.18,1.18,10.28,10.28,0,0,0,.16,1.92,2.53,2.53,0,0,0,.49,1.24h-2.25a2,2,0,0,1-.27-.86c0-.31-.05-.61-.05-.91a8.45,8.45,0,0,0-.1-1.42,2.43,2.43,0,0,0-.37-1,1.62,1.62,0,0,0-.73-.58,3.29,3.29,0,0,0-1.18-.18h-3.09v4.94h-2.1Zm2.1,5.46h3.44a2.19,2.19,0,0,0,1.53-.48,1.83,1.83,0,0,0,.52-1.43,2.32,2.32,0,0,0-.17-.94,1.34,1.34,0,0,0-.46-.56A1.89,1.89,0,0,0,122,65a4.93,4.93,0,0,0-.78-.06h-3.41Z"/><path d="M150.36,63.49a5.91,5.91,0,0,0-.53-1.37A3.9,3.9,0,0,0,149,61a4,4,0,0,0-1.24-.71,5.09,5.09,0,0,0-1.64-.25,4.94,4.94,0,0,0-2.37.55,4.7,4.7,0,0,0-1.62,1.48,6.87,6.87,0,0,0-.92,2.1,9.75,9.75,0,0,0,0,4.8,6.87,6.87,0,0,0,.92,2.1,4.7,4.7,0,0,0,1.62,1.48,4.94,4.94,0,0,0,2.37.55,4.27,4.27,0,0,0,1.77-.35,3.75,3.75,0,0,0,1.32-1,4.5,4.5,0,0,0,.87-1.43,7,7,0,0,0,.41-1.75h2.92a8,8,0,0,1-.66,2.81,6.67,6.67,0,0,1-1.52,2.19,6.55,6.55,0,0,1-2.26,1.43,7.69,7.69,0,0,1-2.85.51,8.15,8.15,0,0,1-3.45-.71A7.74,7.74,0,0,1,140.06,73a8.83,8.83,0,0,1-1.62-2.86,11,11,0,0,1,0-6.94,8.78,8.78,0,0,1,1.62-2.85,7.8,7.8,0,0,1,2.58-1.95,8,8,0,0,1,3.45-.72,9.2,9.2,0,0,1,2.71.4A6.88,6.88,0,0,1,151,59.18,6.07,6.07,0,0,1,152.62,61a6.43,6.43,0,0,1,.74,2.47Z"/><path d="M161.18,63.18h2.24l4.62,12h-2.26L164.66,72h-4.79l-1.12,3.18h-2.17Zm-.74,7.23h3.66l-1.79-5.16h-.05Z"/><path d="M170.86,63.18h5.73a4.44,4.44,0,0,1,3,.86,3,3,0,0,1,1,2.38,3.41,3.41,0,0,1-.25,1.42,3,3,0,0,1-.59.91,2.21,2.21,0,0,1-.66.5,4.69,4.69,0,0,1-.48.2v0a2.08,2.08,0,0,1,.58.17,1.75,1.75,0,0,1,.58.43,2.24,2.24,0,0,1,.44.76,3.37,3.37,0,0,1,.18,1.18,10.28,10.28,0,0,0,.16,1.92,2.63,2.63,0,0,0,.49,1.24h-2.25a2,2,0,0,1-.27-.86c0-.31,0-.61,0-.91a8.45,8.45,0,0,0-.1-1.42,2.43,2.43,0,0,0-.37-1,1.62,1.62,0,0,0-.73-.58,3.29,3.29,0,0,0-1.18-.18H173v4.94h-2.1Zm2.1,5.46h3.44a2.19,2.19,0,0,0,1.53-.48,1.83,1.83,0,0,0,.52-1.43,2.32,2.32,0,0,0-.17-.94,1.34,1.34,0,0,0-.46-.56,1.89,1.89,0,0,0-.67-.27,4.93,4.93,0,0,0-.78-.06H173Z"/><path d="M184.36,63.18H193V65h-6.53v3.14h6v1.71h-6v3.51h6.65v1.82h-8.76Z"/></svg>