<svg id="Layer_1" data-name="Layer 1" xmlns="http://www.w3.org/2000/svg" viewBox="0 0 275 110"><defs><style>.cls-1{fill:#ed1c24;}.cls-2{fill:#fff;}</style></defs><title>boundless-logo-black</title><path class="cls-1" d="M5.31,79c-.91-2.69-.12-3.68,2.26-3.67,19.94,0,39.89,0,59.83.1.85,0,1.69,1.23,2.54,1.88-.73.67-1.45,1.91-2.18,1.92-20.55.08-41.11,0-61.66,0A4,4,0,0,1,5.31,79Z"/><path class="cls-1" d="M269.54,75.32c.82,2.65.48,3.92-1.94,3.92-20.08,0-40.16,0-60.25-.07-.8,0-1.6-1.15-2.41-1.76.71-.7,1.41-2,2.12-2C227.84,75.3,248.63,75.32,269.54,75.32Z"/><path class="cls-2" d="M18.87,23.76a16.07,16.07,0,0,1,3.84.43,7.91,7.91,0,0,1,3.05,1.44,6.78,6.78,0,0,1,2,2.69,10.67,10.67,0,0,1,.7,4.13,8.67,8.67,0,0,1-1.27,4.77,6.39,6.39,0,0,1-3.82,2.71V40a6.63,6.63,0,0,1,4.48,2.45A8.56,8.56,0,0,1,29.48,48,13.86,13.86,0,0,1,29,51.84,7.72,7.72,0,0,1,27.19,55a8.73,8.73,0,0,1-3.25,2.18A13.17,13.17,0,0,1,19,58H7.5V23.76ZM16.22,37.82a6.61,6.61,0,0,0,4.13-1,4.19,4.19,0,0,0,1.3-3.48,4.36,4.36,0,0,0-1.18-3.46,5.7,5.7,0,0,0-3.73-1H14.29v9Zm.71,15.12a6.62,6.62,0,0,0,4-1.1q1.5-1.11,1.5-4.08a6.51,6.51,0,0,0-.4-2.47,4.11,4.11,0,0,0-1.08-1.59,3.9,3.9,0,0,0-1.63-.84,8.4,8.4,0,0,0-2.07-.24H14.29V52.94Z"/><path class="cls-2" d="M38.09,33.72a16.27,16.27,0,0,1,1.56-5.64,8.78,8.78,0,0,1,3.47-3.67,12.07,12.07,0,0,1,6.09-1.32,12.05,12.05,0,0,1,6.08,1.32,8.78,8.78,0,0,1,3.47,3.67,16.27,16.27,0,0,1,1.56,5.64,68.85,68.85,0,0,1,.35,7.17,68.61,68.61,0,0,1-.35,7.2,16.22,16.22,0,0,1-1.56,5.62,8.32,8.32,0,0,1-3.47,3.6,12.65,12.65,0,0,1-6.08,1.25,12.67,12.67,0,0,1-6.09-1.25,8.32,8.32,0,0,1-3.47-3.6,16.22,16.22,0,0,1-1.56-5.62,68.61,68.61,0,0,1-.35-7.2A68.85,68.85,0,0,1,38.09,33.72ZM44.7,46.77a16.61,16.61,0,0,0,.66,3.94,4.36,4.36,0,0,0,1.42,2.21,4.61,4.61,0,0,0,4.85,0,4.36,4.36,0,0,0,1.42-2.21,16.61,16.61,0,0,0,.66-3.94q.16-2.42.17-5.88T53.71,35a17,17,0,0,0-.66-3.94,4.34,4.34,0,0,0-1.42-2.23,4.55,4.55,0,0,0-4.85,0,4.34,4.34,0,0,0-1.42,2.23A17,17,0,0,0,44.7,35q-.16,2.4-.17,5.85T44.7,46.77Z"/><path class="cls-2" d="M75.77,47.66A14.55,14.55,0,0,0,75.94,50a5.21,5.21,0,0,0,.61,1.87,3.35,3.35,0,0,0,1.23,1.25,4.52,4.52,0,0,0,3.93,0,3.38,3.38,0,0,0,1.21-1.25A5.42,5.42,0,0,0,83.53,50a15.75,15.75,0,0,0,.17-2.38V23.76h6.79v23.9a14,14,0,0,1-.9,5.4,8.62,8.62,0,0,1-2.4,3.39,8.19,8.19,0,0,1-3.45,1.68,18.81,18.81,0,0,1-4,.43,20.27,20.27,0,0,1-4-.39,7.69,7.69,0,0,1-5.85-4.89A14.8,14.8,0,0,1,69,47.66V23.76h6.79Z"/><path class="cls-2" d="M115.54,47.23h.1V23.76h6.23V58h-7.74l-8.31-24h-.09V58H99.5V23.76h7.83Z"/><path class="cls-2" d="M142.77,23.76a12,12,0,0,1,5.71,1.17,8.32,8.32,0,0,1,3.37,3.36,15.14,15.14,0,0,1,1.63,5.26,51,51,0,0,1,.42,6.86,49.74,49.74,0,0,1-.54,7.85,15.13,15.13,0,0,1-1.86,5.5A8.18,8.18,0,0,1,148,57,13,13,0,0,1,142.35,58H131.63V23.76Zm-1.32,29.18a5.86,5.86,0,0,0,2.88-.62,4.34,4.34,0,0,0,1.72-2.07,12.31,12.31,0,0,0,.85-3.79q.21-2.35.21-5.85c0-2-.06-3.67-.19-5.14a12.4,12.4,0,0,0-.78-3.67,4.53,4.53,0,0,0-1.74-2.21,5.61,5.61,0,0,0-3.09-.74h-2.88V52.94Z"/><path class="cls-2" d="M163.11,23.76h6.79V52.37h12V58H163.11Z"/><path class="cls-2" d="M208.5,29.42h-12v8.07h11.33v5.66H196.46v9.22H209V58h-19.3V23.76H208.5Z"/><path class="cls-2" d="M222.56,48.33a12.28,12.28,0,0,0,.18,2.19,3.94,3.94,0,0,0,.71,1.65,3.56,3.56,0,0,0,1.39,1.06,5.46,5.46,0,0,0,2.2.38,4.3,4.3,0,0,0,2.81-1,3.91,3.91,0,0,0,1.25-3.19,5.9,5.9,0,0,0-.31-2,3.94,3.94,0,0,0-1-1.51,7.39,7.39,0,0,0-1.87-1.23,27.29,27.29,0,0,0-2.85-1.13,23.89,23.89,0,0,1-3.92-1.68,10.55,10.55,0,0,1-2.76-2.13,7.77,7.77,0,0,1-1.63-2.83,12.38,12.38,0,0,1-.52-3.72c0-3.4.93-5.92,2.79-7.59a11,11,0,0,1,7.64-2.49,16.24,16.24,0,0,1,4.18.5,8.81,8.81,0,0,1,3.3,1.63,7.58,7.58,0,0,1,2.17,2.88,10.29,10.29,0,0,1,.78,4.2v1h-6.51a7,7,0,0,0-.85-3.77,3.11,3.11,0,0,0-2.83-1.32,4.7,4.7,0,0,0-1.89.34,3.15,3.15,0,0,0-1.2.89,3.08,3.08,0,0,0-.62,1.27,6.67,6.67,0,0,0-.16,1.49,5,5,0,0,0,.66,2.66,5.85,5.85,0,0,0,2.83,2l5.24,2.31a15.44,15.44,0,0,1,3.16,1.8,8.63,8.63,0,0,1,2,2,7,7,0,0,1,1,2.38,13.4,13.4,0,0,1,.28,2.88q0,5.43-3.09,7.9c-2.06,1.64-4.93,2.47-8.61,2.47q-5.76,0-8.23-2.55t-2.48-7.29V47.33h6.8Z"/><path class="cls-2" d="M251.76,48.33a11.38,11.38,0,0,0,.19,2.19,3.82,3.82,0,0,0,.71,1.65,3.49,3.49,0,0,0,1.39,1.06,5.38,5.38,0,0,0,2.19.38,4.28,4.28,0,0,0,2.81-1,3.91,3.91,0,0,0,1.25-3.19,5.91,5.91,0,0,0-.3-2,4,4,0,0,0-1-1.51,7.15,7.15,0,0,0-1.86-1.23,26.68,26.68,0,0,0-2.86-1.13,23.76,23.76,0,0,1-3.91-1.68,10.23,10.23,0,0,1-2.76-2.13A7.63,7.63,0,0,1,246,36.89a12.07,12.07,0,0,1-.52-3.72c0-3.4.93-5.92,2.78-7.59a11.08,11.08,0,0,1,7.65-2.49,16.11,16.11,0,0,1,4.17.5,8.78,8.78,0,0,1,3.31,1.63,7.68,7.68,0,0,1,2.17,2.88,10.47,10.47,0,0,1,.77,4.2v1h-6.51a7,7,0,0,0-.85-3.77,3.1,3.1,0,0,0-2.83-1.32,4.68,4.68,0,0,0-1.88.34,3.11,3.11,0,0,0-1.21.89,3.06,3.06,0,0,0-.61,1.27,6.67,6.67,0,0,0-.17,1.49,5,5,0,0,0,.66,2.66,5.89,5.89,0,0,0,2.84,2L261,39.12a15.17,15.17,0,0,1,3.16,1.8,8.63,8.63,0,0,1,2,2,6.82,6.82,0,0,1,1,2.38,14.07,14.07,0,0,1,.28,2.88q0,5.43-3.09,7.9c-2.06,1.64-4.93,2.47-8.61,2.47-3.84,0-6.58-.85-8.24-2.55S245,51.89,245,48.72V47.33h6.79Z"/><path class="cls-2" d="M94,72.43a6.07,6.07,0,0,0-.52-1.37A4.13,4.13,0,0,0,92.65,70a3.72,3.72,0,0,0-1.23-.7A4.88,4.88,0,0,0,89.77,69a4.76,4.76,0,0,0-2.36.56,4.5,4.5,0,0,0-1.62,1.47,6.66,6.66,0,0,0-.93,2.1,9.74,9.74,0,0,0-.3,2.4,9.62,9.62,0,0,0,.3,2.4,6.46,6.46,0,0,0,.93,2.1,4.53,4.53,0,0,0,1.62,1.48,4.76,4.76,0,0,0,2.36.55,4.31,4.31,0,0,0,1.78-.35,3.94,3.94,0,0,0,1.32-1,4.47,4.47,0,0,0,.86-1.43,6.58,6.58,0,0,0,.41-1.75h2.93a8.39,8.39,0,0,1-.66,2.81,6.85,6.85,0,0,1-1.53,2.19A6.6,6.6,0,0,1,92.63,84a7.78,7.78,0,0,1-2.86.51,8.07,8.07,0,0,1-3.44-.71,7.54,7.54,0,0,1-2.58-1.93A8.47,8.47,0,0,1,82.13,79a10.85,10.85,0,0,1,0-6.94,8.43,8.43,0,0,1,1.62-2.85,7.73,7.73,0,0,1,2.58-1.95,8.07,8.07,0,0,1,3.44-.71,9.15,9.15,0,0,1,2.71.39,7.25,7.25,0,0,1,2.25,1.15A6,6,0,0,1,96.3,70,6.26,6.26,0,0,1,97,72.43Z"/><path class="cls-2" d="M104.87,72.12h2.23l4.62,12h-2.25l-1.13-3.18h-4.78l-1.13,3.18h-2.17Zm-.74,7.23h3.66L106,74.19h0Z"/><path class="cls-2" d="M114.54,72.12h5.73a4.44,4.44,0,0,1,3,.86,3,3,0,0,1,1,2.39,3.46,3.46,0,0,1-.26,1.42,3,3,0,0,1-.58.9,2.38,2.38,0,0,1-.67.5,4.69,4.69,0,0,1-.48.2v0a2.35,2.35,0,0,1,.58.17,1.65,1.65,0,0,1,.58.43,2.37,2.37,0,0,1,.45.77A3.29,3.29,0,0,1,124,81a11.11,11.11,0,0,0,.16,1.92,2.63,2.63,0,0,0,.5,1.24h-2.25a1.94,1.94,0,0,1-.28-.86c0-.31,0-.61,0-.9a8.29,8.29,0,0,0-.1-1.42,2.57,2.57,0,0,0-.37-1,1.62,1.62,0,0,0-.73-.58,3.31,3.31,0,0,0-1.19-.18h-3.09v4.94h-2.1Zm2.1,5.46h3.45a2.24,2.24,0,0,0,1.53-.47,1.89,1.89,0,0,0,.52-1.44,2.24,2.24,0,0,0-.17-.93,1.45,1.45,0,0,0-.46-.57,1.87,1.87,0,0,0-.68-.27,4.93,4.93,0,0,0-.78-.06h-3.41Z"/><path class="cls-2" d="M149.24,72.43a6.61,6.61,0,0,0-.53-1.37,3.94,3.94,0,0,0-.87-1.08,3.72,3.72,0,0,0-1.23-.7A4.84,4.84,0,0,0,145,69a4.76,4.76,0,0,0-2.36.56A4.67,4.67,0,0,0,141,71.05a6.64,6.64,0,0,0-.92,2.1,9.74,9.74,0,0,0-.3,2.4,9.62,9.62,0,0,0,.3,2.4,6.45,6.45,0,0,0,.92,2.1,4.7,4.7,0,0,0,1.62,1.48,4.76,4.76,0,0,0,2.36.55,4.28,4.28,0,0,0,1.78-.35,3.94,3.94,0,0,0,1.32-1,4.3,4.3,0,0,0,.86-1.43,6.58,6.58,0,0,0,.41-1.75h2.93a7.94,7.94,0,0,1-.66,2.81,6.82,6.82,0,0,1-1.52,2.19A6.64,6.64,0,0,1,147.82,84a7.74,7.74,0,0,1-2.86.51,8.11,8.11,0,0,1-3.44-.71,7.54,7.54,0,0,1-2.58-1.93A8.83,8.83,0,0,1,137.32,79a11,11,0,0,1,0-6.94,8.78,8.78,0,0,1,1.62-2.85,7.73,7.73,0,0,1,2.58-1.95,8.11,8.11,0,0,1,3.44-.71,9.27,9.27,0,0,1,2.72.39,7.3,7.3,0,0,1,2.24,1.15A6,6,0,0,1,151.49,70a6.44,6.44,0,0,1,.75,2.47Z"/><path class="cls-2" d="M160.06,72.12h2.23l4.62,12h-2.25l-1.13-3.18h-4.78l-1.13,3.18h-2.17Zm-.74,7.23H163l-1.8-5.16h-.05Z"/><path class="cls-2" d="M169.73,72.12h5.73a4.47,4.47,0,0,1,3,.86,3,3,0,0,1,1,2.39,3.65,3.65,0,0,1-.25,1.42,3.27,3.27,0,0,1-.59.9,2.38,2.38,0,0,1-.67.5,3.93,3.93,0,0,1-.47.2v0a2.62,2.62,0,0,1,.58.17,1.75,1.75,0,0,1,.58.43,2.55,2.55,0,0,1,.44.77,3.27,3.27,0,0,1,.18,1.17,10.2,10.2,0,0,0,.16,1.92,2.53,2.53,0,0,0,.49,1.24h-2.25a1.94,1.94,0,0,1-.28-.86c0-.31,0-.61,0-.9a8.29,8.29,0,0,0-.1-1.42,2.57,2.57,0,0,0-.37-1,1.62,1.62,0,0,0-.73-.58,3.29,3.29,0,0,0-1.18-.18h-3.1v4.94h-2.1Zm2.1,5.46h3.45a2.24,2.24,0,0,0,1.53-.47,1.89,1.89,0,0,0,.52-1.44,2.24,2.24,0,0,0-.17-.93,1.45,1.45,0,0,0-.46-.57,1.89,1.89,0,0,0-.67-.27,5.16,5.16,0,0,0-.79-.06h-3.41Z"/><path class="cls-2" d="M183.24,72.12h8.64v1.82h-6.54v3.14h6v1.71h-6V82.3H192v1.82h-8.75Z"/></svg>