<?xml version="1.0" encoding="utf-8"?>
<!-- Generator: Adobe Illustrator 22.1.0, SVG Export Plug-In . SVG Version: 6.00 Build 0)  -->
<svg version="1.1" id="Layer_1" xmlns="http://www.w3.org/2000/svg" xmlns:xlink="http://www.w3.org/1999/xlink" x="0px" y="0px"
	 viewBox="0 0 448 512" style="enable-background:new 0 0 448 512;" xml:space="preserve">
<style type="text/css">
	.st0{fill:#FFFFFF;}
</style>
<path class="st0" d="M400,64h-48V12c0-6.6-5.4-12-12-12h-8c-6.6,0-12,5.4-12,12v52H128V12c0-6.6-5.4-12-12-12h-8
	c-6.6,0-12,5.4-12,12v52H48C21.5,64,0,85.5,0,112v352c0,26.5,21.5,48,48,48h352c26.5,0,48-21.5,48-48V112C448,85.5,426.5,64,400,64z
	 M48,96h352c8.8,0,16,7.2,16,16v48H32v-48C32,103.2,39.2,96,48,96z M400,480H48c-8.8,0-16-7.2-16-16V192h384v272
	C416,472.8,408.8,480,400,480z M333.5,285.1L198.7,418.8c-4.7,4.7-12.3,4.6-17,0l-67.4-67.6c-4.7-4.7-4.7-12.3,0-17l8.5-8.5
	c4.7-4.7,12.3-4.7,17,0l50.4,50.6l117.8-116.8c4.7-4.7,12.3-4.6,17,0.1l8.5,8.5C338.3,272.8,338.2,280.4,333.5,285.1L333.5,285.1z"
	/>
</svg>
